# xmcd
#
# Track frame offsets: 
#        150
#        12741
#        24825
#        33942
#        45962
#        59234
#        72882
#        84982
#        94207
#        104148
#        115904
#        127760
#        137866
#        150152
#        160370
#        170411
#        181020
#        192255
#        203808
#        213540
#        223198
#        233221
#        242978
#        252342
#        262830
#
# Disc length: 3645 seconds
#
# Revision: 2
# Processed by: cddbd v1.5.2PL0 Copyright (c) Steve Scherf et al.
# Submitted via: ExactAudioCopy v1.3
#
DISCID=5f0e3b19
DTITLE=Various Artist - Steelin' It:_The Steel Guitar Story_CD4
DYEAR=2008
DGENRE=Instrumental
TTITLE0=Buster Martin's Bronco Busters - Herbiie's Steel Guitar Polka
TTITLE1=Hank Penny - Remington Ride
TTITLE2=Webb Pierce - I Need You like a Hole in the Head
TTITLE3=Shot Jackson - Steeling the Mood
TTITLE4=Floyd Tillman and the Ranch Hands - I Don't Care Anymore
TTITLE5=George Morgan - Be Sure You Know
TTITLE6=Billy Walker - Mexican Joe
TTITLE7=Speedy West and Jimmy Bryant - Speedin' West
TTITLE8=Speedy West and Jimmy Bryant - Strarosphere Boogie
TTITLE9=Hank Williams and the Drifting Cowboys - Settin' the Woods on Fi
TTITLE9=re
TTITLE10=Joe Maphis and Rose Lee - Fire on the Strings
TTITLE11=Charlie Feathers - Peepin' Eyes
TTITLE12=Charlie Feathers - I've Been Deceived
TTITLE13=Marvin Rainwater - Where Do We Go from Here?
TTITLE14=Slim Rhodes - Uncertain Love
TTITLE15=Slim Rhodes - Gonna Romp and Stomp
TTITLE16=Onie Wheeler - A Booger Gonna Getcha
TTITLE17=Onie Wheeler - A Begger for Your Love
TTITLE18=Faron Young - Shame on You
TTITLE19=Faron Young - I'm Gonna Live Some Before I Die
TTITLE20=Rose Maddox - Looky There, Over There
TTITLE21=Terry Fell - That's the Way the Big Ball Bounces
TTITLE22=Terry Fell - Wham! Bam! Hot, Ziggity, Zam
TTITLE23=Melvin Endsley - I Ain't Gettin' Nowhere with You
TTITLE24=Bill Haley and His Comets - Is It True What They Say About Dixi
TTITLE24=e?
EXTD=Compiled and annotated by Adam Komorowski.\nProduced for release 
EXTD=by Joop Visser Productions.\nDigital remastering by Peter Rynston
EXTD=at Tall Order Mastering, Crowborough GB-ESX.\n4CD: Proper Proper
EXTD=Box 142 (2008-04-14), UPC 805520021425.
EXTT0=
EXTT1=
EXTT2=
EXTT3=
EXTT4=
EXTT5=
EXTT6=
EXTT7=
EXTT8=
EXTT9=
EXTT10=
EXTT11=
EXTT12=
EXTT13=
EXTT14=
EXTT15=
EXTT16=
EXTT17=
EXTT18=
EXTT19=
EXTT20=
EXTT21=
EXTT22=
EXTT23=
EXTT24=
PLAYORDER=
